<?xml version="1.0" standalone="no"?>
<!DOCTYPE svg PUBLIC "-//W3C//DTD SVG 20010904//EN"
 "http://www.w3.org/TR/2001/REC-SVG-20010904/DTD/svg10.dtd">
<svg version="1.0" xmlns="http://www.w3.org/2000/svg"
 width="1200.000000pt" height="1200.000000pt" viewBox="0 0 1200.000000 1200.000000"
 preserveAspectRatio="xMidYMid meet">
<metadata>
Created by potrace 1.11, written by Peter Selinger 2001-2013
</metadata>
<g transform="translate(0.000000,1200.000000) scale(0.100000,-0.100000)"
fill="#000000" stroke="none">
<path d="M880 11993 c-166 -26 -300 -76 -427 -158 -215 -140 -370 -365 -429
-620 -18 -77 -19 -244 -19 -5220 l0 -5140 22 -88 c96 -374 383 -656 758 -743
77 -18 244 -19 5215 -19 4971 0 5138 1 5215 19 375 87 662 369 758 743 l22 88
0 5145 0 5145 -22 88 c-87 340 -332 606 -660 716 -162 54 192 51 -5322 50
-2797 -1 -5097 -3 -5111 -6z m5315 -698 c104 -35 185 -85 262 -162 l63 -62
677 -3 678 -3 57 -28 c108 -53 159 -139 166 -279 l4 -88 1242 -2 c1238 -3
1241 -3 1287 -24 66 -31 114 -78 146 -142 l28 -57 0 -4585 0 -4585 -21 -46
c-31 -66 -78 -114 -142 -146 l-57 -28 -4585 0 -4585 0 -57 28 c-64 32 -111 80
-142 146 l-21 46 0 4585 0 4585 28 57 c32 64 80 111 146 142 46 21 49 21 1282
24 l1237 2 4 88 c7 140 58 226 166 279 l57 28 673 3 673 3 57 58 c136 139 301
204 497 197 75 -3 120 -11 180 -31z"/>
<path d="M1690 5860 l0 -4310 4310 0 4310 0 0 4310 0 4310 -1105 0 -1105 0 0
-110 0 -109 683 -3 682 -3 57 -28 c64 -32 111 -80 142 -146 l21 -46 0 -3855 0
-3855 -28 -57 c-32 -64 -80 -111 -146 -142 l-46 -21 -3470 0 -3470 0 -46 21
c-66 31 -114 78 -146 142 l-28 57 0 3855 0 3855 28 57 c32 64 80 111 146 142
45 21 59 21 729 24 l682 3 0 109 0 110 -1100 0 -1100 0 0 -4310z"/>
<path d="M2551 9736 c-13 -7 -30 -24 -37 -37 -11 -20 -13 -690 -14 -3827 0
-4141 -4 -3843 55 -3870 38 -17 6842 -17 6880 0 59 27 55 -270 55 3868 0 4138
4 3841 -55 3868 -19 9 -194 12 -679 12 l-654 0 -4 -92 c-7 -146 -56 -231 -166
-285 l-57 -28 -1880 0 -1880 0 -46 21 c-66 31 -115 78 -146 142 -22 46 -28 73
-31 149 l-4 93 -657 0 c-525 -1 -661 -3 -680 -14z m2195 -1187 c527 -305 961
-555 966 -557 4 -2 8 37 8 88 0 112 20 159 80 190 34 17 58 20 187 20 135 0
152 -2 187 -23 61 -35 76 -73 76 -194 0 -57 3 -103 6 -103 4 0 448 255 988
568 976 564 981 567 1037 567 94 0 99 -7 344 -431 141 -245 219 -390 222 -415
7 -48 -11 -99 -46 -133 -16 -15 -390 -237 -832 -492 -442 -256 -804 -469 -804
-474 0 -5 362 -219 804 -474 442 -256 817 -477 832 -492 35 -34 53 -85 46
-134 -5 -40 -410 -754 -455 -802 -32 -35 -83 -52 -133 -45 -28 4 -324 170
-1018 571 -539 311 -982 566 -985 566 -3 0 -6 -344 -6 -765 l0 -765 444 0 443
0 69 28 c124 51 206 67 349 67 95 0 150 -5 205 -19 334 -85 577 -326 666 -662
14 -51 18 -105 18 -209 0 -104 -4 -158 -18 -209 -89 -334 -328 -573 -662 -662
-97 -26 -321 -26 -418 0 -564 150 -844 749 -593 1266 18 36 34 68 35 73 2 4
-118 7 -267 7 l-271 0 0 -953 c0 -908 -1 -954 -19 -987 -10 -19 -36 -45 -57
-57 -36 -21 -52 -23 -189 -23 -137 0 -153 2 -189 23 -21 12 -47 38 -57 57 -18
33 -19 79 -19 987 l0 953 -261 0 c-143 0 -259 -3 -257 -7 2 -5 17 -37 35 -73
197 -405 67 -889 -303 -1136 -163 -108 -298 -148 -499 -148 -104 0 -158 4
-209 18 -333 89 -573 329 -662 662 -14 51 -18 105 -18 209 0 104 4 158 18 209
89 336 332 577 666 662 55 14 110 19 205 19 143 0 225 -16 349 -67 l69 -28
433 0 434 0 0 756 c0 416 -4 754 -8 752 -5 -1 -440 -253 -968 -558 -954 -552
-959 -555 -1015 -555 -94 0 -99 7 -344 431 -141 245 -219 390 -222 415 -7 48
11 99 46 133 15 15 390 236 832 492 442 255 804 469 804 474 0 5 -362 219
-804 474 -442 256 -817 477 -832 492 -35 34 -53 85 -46 133 5 37 408 752 449
798 34 36 79 54 130 50 40 -3 177 -79 1004 -558z"/>
<path d="M4330 4509 c-133 -26 -281 -144 -341 -273 -91 -194 -49 -416 105
-564 196 -188 486 -188 682 0 199 191 204 494 12 694 -120 125 -285 177 -458
143z"/>
<path d="M7450 4509 c-133 -26 -281 -144 -341 -273 -91 -194 -49 -416 105
-564 196 -188 486 -188 682 0 199 191 204 494 12 694 -120 125 -285 177 -458
143z"/>
</g>
</svg>
