<?xml version="1.0" standalone="no"?>
<!DOCTYPE svg PUBLIC "-//W3C//DTD SVG 20010904//EN"
 "http://www.w3.org/TR/2001/REC-SVG-20010904/DTD/svg10.dtd">
<svg version="1.0" xmlns="http://www.w3.org/2000/svg"
 width="700.000000pt" height="700.000000pt" viewBox="0 0 700.000000 700.000000"
 preserveAspectRatio="xMidYMid meet">
<metadata>
Created by potrace 1.11, written by Peter Selinger 2001-2013
</metadata>
<g transform="translate(0.000000,700.000000) scale(0.100000,-0.100000)"
fill="#000000" stroke="none">
<path d="M1750 6970 c-177 -29 -298 -141 -346 -320 -16 -61 -17 -220 -17
-2610 0 -2382 1 -2549 17 -2610 35 -130 93 -193 215 -230 122 -38 183 -90 212
-181 7 -21 12 -149 14 -334 1 -258 4 -306 19 -340 29 -69 76 -107 146 -119 54
-9 960 -6 1001 3 78 18 136 75 157 151 5 19 9 168 10 330 1 162 4 304 6 315 3
11 5 25 5 32 2 31 56 73 138 108 114 48 185 102 233 176 43 67 64 138 63 219
0 101 -10 136 -91 321 -48 111 -107 274 -116 321 -2 13 -11 50 -19 83 -33 124
-42 208 -42 375 0 134 8 228 25 305 5 22 11 52 13 66 8 40 52 174 97 289 69
180 117 368 144 575 29 216 30 1309 1 1549 -7 55 -17 461 -20 781 -3 354 -10
411 -60 520 -38 83 -90 139 -163 178 -99 54 -117 55 -887 54 -390 0 -730 -3
-755 -7z m840 -486 c86 -25 394 -183 449 -231 55 -48 92 -108 109 -174 13 -56
8 -700 -7 -747 -17 -57 -52 -102 -95 -124 -41 -22 -46 -22 -546 -22 -540 0
-551 1 -618 51 -18 13 -42 43 -55 66 -22 41 -22 49 -24 422 -1 209 3 394 8
412 12 40 36 59 245 197 258 171 360 199 534 150z m50 -1789 c65 -23 361 -192
399 -227 45 -42 77 -93 100 -159 18 -52 19 -83 17 -410 -2 -332 -4 -357 -23
-400 -22 -49 -50 -80 -98 -107 -27 -15 -80 -17 -525 -19 -300 -2 -509 1 -529
7 -56 16 -108 58 -133 108 -23 47 -23 49 -23 447 0 364 2 403 18 433 10 18 27
38 39 45 12 6 92 59 177 116 168 112 227 143 324 171 75 21 191 19 257 -5z
m33 -1795 c66 -25 183 -100 247 -159 25 -23 73 -54 107 -71 71 -33 108 -79
121 -150 4 -25 7 -205 7 -400 -1 -274 -5 -365 -15 -400 -19 -57 -77 -115 -132
-131 -61 -18 -975 -18 -1036 0 -57 16 -107 64 -130 126 -18 46 -19 75 -17 375
2 190 7 347 14 379 15 73 56 145 106 185 119 98 394 251 470 262 22 3 42 8 45
11 11 12 161 -7 213 -27z"/>
<path d="M3841 6751 c-8 -5 -13 -22 -13 -37 1 -16 2 -359 4 -762 3 -680 4
-734 20 -743 35 -20 67 2 130 86 77 103 112 128 183 130 30 1 61 8 70 15 8 6
30 45 50 86 61 129 125 185 341 295 240 122 294 176 320 319 10 57 6 306 -6
350 -19 72 -21 73 -455 74 -432 1 -419 -1 -466 82 -15 27 -42 61 -60 76 -37
29 -96 44 -118 29z"/>
<path d="M1062 6733 c-22 -11 -44 -35 -64 -70 -58 -103 -119 -133 -261 -128
-232 8 -650 5 -661 -4 -7 -6 -23 -32 -37 -58 -67 -131 -3 -420 123 -554 33
-35 75 -62 183 -114 240 -116 317 -185 370 -330 10 -27 22 -54 27 -60 5 -5 32
-10 61 -11 85 -2 146 -40 218 -134 18 -25 41 -50 49 -57 18 -15 55 -16 80 -3
17 9 18 43 18 759 0 556 -3 752 -11 759 -24 19 -63 21 -95 5z"/>
<path d="M1065 4940 c-26 -10 -37 -24 -60 -80 -24 -58 -60 -98 -108 -120 -33
-15 -78 -17 -422 -15 -448 2 -434 4 -455 -85 -26 -107 3 -294 65 -425 45 -95
75 -122 207 -188 147 -74 260 -160 453 -344 100 -95 155 -143 220 -193 137
-107 153 -115 183 -94 19 13 20 25 20 751 0 496 -4 745 -11 758 -21 41 -51 52
-92 35z"/>
<path d="M3860 4932 l-25 -20 -1 -451 c0 -248 1 -451 3 -451 2 0 38 34 81 76
170 168 371 302 579 385 77 30 226 75 283 84 115 19 157 47 166 112 4 33 1 46
-14 61 -19 19 -36 19 -408 19 -214 0 -402 3 -419 7 -45 11 -74 44 -91 102 -18
62 -37 81 -90 89 -31 5 -45 3 -64 -13z"/>
<path d="M5435 4318 c-22 -4 -98 -7 -170 -6 -79 0 -142 -5 -160 -12 -16 -7
-54 -13 -83 -15 -49 -4 -114 -20 -137 -36 -5 -4 -26 -10 -45 -14 -19 -4 -41
-11 -50 -16 -8 -4 -51 -25 -95 -45 -307 -143 -573 -379 -752 -665 -51 -82
-127 -241 -157 -330 -35 -106 -58 -213 -76 -354 -8 -66 -6 -410 4 -465 3 -19
8 -48 10 -65 68 -424 302 -817 636 -1066 133 -100 254 -169 410 -234 127 -53
152 -89 153 -218 1 -126 28 -118 -396 -122 -195 -1 -360 -5 -365 -9 -5 -3 -24
-8 -43 -11 -50 -9 -79 -31 -99 -78 -26 -58 -31 -102 -31 -273 -1 -152 2 -178
20 -211 26 -50 -18 -48 1215 -48 633 0 1178 2 1210 4 67 5 144 39 165 73 29
46 38 121 35 297 -3 177 -13 234 -42 250 -9 5 -200 8 -424 6 -304 -2 -410 1
-418 10 -13 16 -14 62 -1 110 5 22 13 55 16 74 9 51 38 84 97 111 329 146 460
231 638 410 148 149 254 311 338 517 56 136 111 335 128 463 2 19 8 64 13 100
13 95 11 312 -4 410 -84 554 -455 1054 -960 1295 -120 57 -197 84 -330 115
-48 11 -95 25 -106 30 -32 18 -102 26 -144 18z m281 -141 c34 -35 56 -87 50
-113 -9 -34 -42 -52 -111 -59 -33 -3 -78 -8 -100 -10 -122 -14 -432 -3 -509
16 -89 23 -112 93 -51 154 l36 35 332 0 c330 0 332 0 353 -23z m-216 -621 c53
-6 142 -29 185 -47 17 -7 32 -13 35 -14 17 -4 104 -54 153 -87 151 -102 297
-304 353 -488 54 -174 67 -381 34 -533 -75 -343 -317 -611 -638 -706 -98 -30
-120 -33 -247 -35 -108 -3 -233 16 -310 46 -79 30 -196 95 -252 139 -341 272
-459 739 -290 1153 40 98 124 230 193 302 137 143 333 247 505 269 30 4 55 8
56 9 4 4 178 -2 223 -8z"/>
<path d="M5370 2990 c0 -4 9 -15 20 -25 11 -10 29 -43 41 -74 42 -113 8 -231
-80 -269 -48 -20 -138 -20 -179 2 -42 22 -86 84 -114 159 l-22 61 -23 -52
c-64 -147 -69 -285 -14 -397 45 -90 112 -157 196 -196 62 -29 81 -33 160 -33
84 -1 95 1 168 36 190 91 290 288 241 476 -49 189 -173 308 -329 316 -36 2
-65 1 -65 -4z"/>
<path d="M1054 3120 c-33 -13 -82 -67 -89 -99 -3 -15 -20 -41 -36 -57 l-30
-29 -407 -2 c-280 -2 -413 -6 -428 -14 -74 -39 -80 -251 -13 -439 21 -61 72
-143 110 -180 22 -21 67 -48 107 -64 127 -49 236 -132 444 -335 262 -256 338
-316 384 -305 52 13 51 -1 50 704 -1 520 1 662 12 688 7 18 13 49 14 69 2 59
-54 89 -118 63z"/>
</g>
</svg>
