<?xml version="1.0" standalone="no"?>
<!DOCTYPE svg PUBLIC "-//W3C//DTD SVG 20010904//EN"
 "http://www.w3.org/TR/2001/REC-SVG-20010904/DTD/svg10.dtd">
<svg version="1.0" xmlns="http://www.w3.org/2000/svg"
 width="192.000000pt" height="192.000000pt" viewBox="0 0 192.000000 192.000000"
 preserveAspectRatio="xMidYMid meet">
<metadata>
Created by potrace 1.11, written by Peter Selinger 2001-2013
</metadata>
<g transform="translate(0.000000,192.000000) scale(0.100000,-0.100000)"
fill="#000000" stroke="none">
<path d="M845 1796 c-44 -25 -87 -50 -95 -55 -8 -5 -75 -44 -148 -86 -383
-220 -389 -224 -406 -260 -15 -30 -16 -81 -13 -452 4 -409 5 -448 15 -438 3 2
12 -4 21 -14 9 -10 38 -29 64 -41 26 -12 47 -25 47 -29 0 -4 6 -8 13 -8 20 -1
127 -70 119 -77 -3 -4 1 -4 9 -1 9 3 22 -1 29 -10 7 -8 16 -15 20 -15 18 0
119 -64 113 -72 -3 -5 1 -8 8 -7 14 3 99 -37 109 -50 3 -4 19 -13 36 -20 18
-7 41 -21 53 -32 12 -11 21 -17 21 -13 0 4 9 -1 21 -12 12 -10 23 -18 25 -16
10 6 25 1 19 -7 -5 -10 10 -8 70 6 17 4 33 6 38 5 4 -1 7 2 7 8 0 5 7 10 15
10 8 0 15 5 15 10 0 6 6 10 13 10 6 0 23 9 37 20 19 15 28 16 39 7 12 -10 13
-9 7 1 -8 14 23 44 36 36 5 -3 8 0 8 6 0 7 7 9 16 6 8 -3 13 -2 10 2 -3 5 8
16 25 26 16 9 29 14 29 9 0 -4 5 0 11 10 5 9 16 17 23 17 7 0 25 9 40 21 14
11 26 18 26 14 0 -4 7 1 16 10 15 15 18 14 40 -6 13 -12 21 -26 17 -32 -3 -6
-2 -7 4 -4 6 4 21 -6 35 -21 42 -46 141 -122 125 -95 -3 4 11 9 30 10 63 3
114 59 108 117 -1 11 -3 29 -4 38 0 9 -26 43 -56 74 -30 32 -55 59 -55 60 0 1
15 12 34 23 58 36 59 43 59 485 0 351 -2 405 -16 433 -16 29 -61 61 -177 125
-65 36 -372 213 -460 266 -108 65 -142 66 -245 8z"/>
</g>
</svg>
